<svg width="32" height="32" viewBox="0 0 32 32" fill="none" xmlns="http://www.w3.org/2000/svg">
<mask id="mask0" mask-type="alpha" maskUnits="userSpaceOnUse" x="0" y="0" width="32" height="32">
<circle cx="16" cy="16" r="16" fill="#FFFBFA"/>
</mask>
<g mask="url(#mask0)">
<path d="M7.69789 11.0691C8.44907 6.20982 12.8405 2.7196 17.4246 5.07212C18.4647 5.59276 19.8515 6.67261 20.5641 7.59819C22.4902 10.0664 22.991 13.1324 24.9749 15.5428C24.243 16.102 23.357 16.6805 22.2976 17.2397L21.0649 15.5813L21.4887 17.6446C18.4069 19.1294 14.054 20.3442 8.10237 20.3057C7.37046 16.9311 7.31268 13.653 7.69789 11.0691Z" fill="#0E2E35"/>
<path d="M6.94674 30.2749C9.37361 22.8895 12.0894 23.198 12.0894 23.198L9.98996 38.7208C8.48761 38.3159 6.54226 37.3903 5.03992 36.9661C5.5407 34.6328 6.34965 32.0875 6.94674 30.2749Z" fill="#B5BBF5"/>
<path d="M16.3298 25.8675C16.3298 25.8675 20.8176 25.5782 22.5896 27.5258C24.3616 29.4734 18.6603 44.8033 18.3329 47.2715C18.0055 49.7398 19.9701 56.296 19.9701 56.296C19.9701 56.296 9.45366 58.4171 6.42971 56.4309C6.42971 56.4309 6.10227 38.6906 6.42971 36.9359C6.75714 35.1811 9.29957 27.9307 9.93518 27.2173C10.5901 26.5038 16.3298 25.8675 16.3298 25.8675Z" fill="#B5BBF5"/>
<path d="M16.8275 15.8705C16.8275 15.8705 16.8468 16.0055 16.8853 16.2369C17.0779 17.3167 17.8484 20.9034 18.3684 21.8868C19.004 23.0823 16.2112 26.8811 13.5532 26.4183C12.7635 26.2833 14.2273 22.9281 14.1503 22.581C14.0155 21.9061 13.8229 20.9805 13.6495 20.0164C13.5532 19.4764 13.4376 18.9365 13.3413 18.4159C13.0524 16.9697 12.8213 15.7741 12.8213 15.7741L16.8275 15.8705Z" fill="#F8B2A2"/>
<path d="M14.131 6.73046C14.131 6.73046 16.0186 6.51835 17.2127 8.0417C18.4069 9.56506 19.6781 14.3279 16.7312 16.9119C13.7843 19.4958 10.8759 16.5648 10.4522 13.4795C10.0092 10.3749 9.85508 6.61476 14.131 6.73046Z" fill="#F8B2A2"/>
<path d="M13.9192 6.22905C13.9192 6.22905 16.4424 10.7413 18.2529 10.9534C20.0634 11.1655 20.2945 13.5566 20.2945 13.5566C20.2945 13.5566 19.6397 8.02236 17.8677 6.9618C16.0764 5.88196 13.9192 6.22905 13.9192 6.22905Z" fill="#0E2E35"/>
<path d="M30.9265 34.575C30.9265 34.575 27.7099 26.9582 26.0535 24.5671C23.9733 21.5975 18.561 21.5204 19.1003 24.1236C19.6204 26.6497 23.0873 35.7705 23.0873 35.7705L30.9265 34.575Z" fill="#B5BBF5"/>
</g>
</svg>
